<svg id="_001---Gardening" data-name="001---Gardening" xmlns="http://www.w3.org/2000/svg" width="34" height="34.003" viewBox="0 0 34 34.003">
  <path id="Shape" d="M8,23.65v1.983a.021.021,0,0,1,.006.017c.317,3.17.83,4.709,1.147,5.066.317-.357.83-1.9,1.147-5.066a.021.021,0,0,1,.006-.017V23.65A3.394,3.394,0,0,1,8,23.65Z" transform="translate(-3.389 -10.02)" fill="#45475e"/>
  <g id="Group_2942" data-name="Group 2942">
    <path id="Shape-2" data-name="Shape" d="M29.055,48.832H39.727a.576.576,0,0,0,.572-.5L42.021,35H26.762l1.721,13.329A.576.576,0,0,0,29.055,48.832Z" transform="translate(-11.339 -14.829)" fill="#45475e"/>
    <path id="Shape-3" data-name="Shape" d="M24.19,10.389a6.362,6.362,0,0,0,3.57.969,10.835,10.835,0,0,0,2.895-.418,11.235,11.235,0,0,1,.692,2.79l.02,1.352h-8.06a.576.576,0,0,0-.572.651l.525,4.034a.576.576,0,0,0,.571.5H40.07a.576.576,0,0,0,.571-.5l.525-4.034a.576.576,0,0,0-.572-.651H32.526l.028-1.35a10.792,10.792,0,0,1,.692-2.792,10.86,10.86,0,0,0,2.894.417,6.362,6.362,0,0,0,3.57-.969c2.766-1.852,3.17-6.116,3.188-6.3a.524.524,0,0,0-.008-.1.662.662,0,0,0-.005-.069.576.576,0,0,0-.08-.194v0c-.006-.009-.015-.013-.021-.021a.6.6,0,0,0-.124-.123.645.645,0,0,0-.067-.037.5.5,0,0,0-.073-.04c-.166-.058-4.1-1.438-6.881.422-2.5,1.671-3.069,5.3-3.17,6.126a3.31,3.31,0,0,0-.519,1.077,3.373,3.373,0,0,0-.519-1.082c-.1-.831-.675-4.451-3.17-6.121-2.775-1.859-6.712-.48-6.879-.422a.519.519,0,0,0-.073.04.583.583,0,0,0-.067.037.576.576,0,0,0-.124.123c-.006.008-.015.012-.021.021v0a.576.576,0,0,0-.08.194.662.662,0,0,0-.005.069.524.524,0,0,0-.012.1c.018.181.424,4.445,3.19,6.3Zm2,7.575H25.034a.576.576,0,1,1,0-1.153h1.153a.576.576,0,0,1,0,1.153Zm6.339-1.153a.576.576,0,1,1,0,1.153H28.492a.576.576,0,0,1,0-1.153Z" transform="translate(-8.897 -1.251)" fill="#45475e"/>
    <path id="Shape-4" data-name="Shape" d="M7.153,12.368a2.305,2.305,0,0,0,3.458-1.994V2.305A2.305,2.305,0,1,0,6,2.305v8.068a2.294,2.294,0,0,0,1.153,1.994ZM8.305,1.729a.576.576,0,1,1-.576.576A.576.576,0,0,1,8.305,1.729Z" transform="translate(-2.542)" fill="#45475e"/>
    <path id="Shape-5" data-name="Shape" d="M5.763,45.015c2.882,0,5.763-8.53,5.763-12.761,0-3.17-1.452-4.457-3.521-4.9-.583,6.134-1.746,6.134-2.242,6.134s-1.659,0-2.242-6.137C1.452,27.8,0,29.081,0,32.251,0,36.485,2.882,45.015,5.763,45.015Z" transform="translate(0 -11.589)" fill="#45475e"/>
  </g>
</svg>
