<svg xmlns="http://www.w3.org/2000/svg" width="342" height="133.097" viewBox="0 0 342 133.097">
  <g id="Group_2735" data-name="Group 2735" transform="translate(-747 -260.903)">
    <g id="Group_2734" data-name="Group 2734" transform="translate(515.547 -100.414)">
      <path id="Path_109816" data-name="Path 109816" d="M3348.832,429.2l-36.039-58.328v63.655h-6V361.317h7.147l34.9,56.526,34.9-56.526h7.149v74.294h-6.007V370.867Z" transform="translate(-3065.128 0)" fill="#fff"/>
      <path id="Path_109817" data-name="Path 109817" d="M3471.382,412.31a18.52,18.52,0,0,0-5.227-.721,18.047,18.047,0,0,0-18.019,18.019v20.8h-6.006V405.583h6.006v9.009a5.22,5.22,0,0,1,1.021-1.982,23.157,23.157,0,0,1,17-7.028,25.261,25.261,0,0,1,6.368.781Z" transform="translate(-3110.376 -14.799)" fill="#fff"/>
      <path id="Path_109818" data-name="Path 109818" d="M3493.1,452.1V398.042h6.007V452.1a28.885,28.885,0,0,1-8.77,21.2l-4.264-4.2A23.16,23.16,0,0,0,3493.1,452.1Zm6.007-69.073v6.006H3493.1v-6.006Z" transform="translate(-3125.067 -7.258)" fill="#fff"/>
      <path id="Path_109819" data-name="Path 109819" d="M3544.345,465.646a30.046,30.046,0,1,1,21.232-8.8A28.927,28.927,0,0,1,3544.345,465.646Zm0-54.056a23.994,23.994,0,1,0,17,7.027A23.153,23.153,0,0,0,3544.345,411.589Z" transform="translate(-3134.509 -14.799)" fill="#fff"/>
      <path id="Path_109820" data-name="Path 109820" d="M3712.817,405.583h6.007v8.109q.48-.54,1.021-1.081a24.026,24.026,0,0,1,41.023,17v36.037h-6.007V429.609a18.019,18.019,0,0,0-36.038,0v36.037h-6.007Z" transform="translate(-3200.873 -14.799)" fill="#fff"/>
      <path id="Path_109821" data-name="Path 109821" d="M3302.244,515.584c10.113-16.011,21.051-28.913,32.568-38.524l-3.65-5.606q-21.119,17.391-39.266,48.622h0a3.264,3.264,0,0,0,1.956,4.785h0a213.225,213.225,0,0,0,50.332,6.37c.372,0,.739,0,1.11,0,32.021,0,57.977-8.205,75.792-23.842l-4.622-4.623c-33.872,29.459-90.443,22.022-112.093,17.766A3.27,3.27,0,0,1,3302.244,515.584Z" transform="translate(-3060 -36.822)" fill="#7bcf0c"/>
      <path id="Path_109822" data-name="Path 109822" d="M3647.45,406.916a16.388,16.388,0,0,1,13.3-9.635c.626-.067,1.18-.13,1.688-.189a48.472,48.472,0,0,1,9.925-.154l.026-4.786a54.706,54.706,0,0,0-10.5.177c-.5.057-1.038.119-1.65.185a21.143,21.143,0,0,0-17.173,12.46,20.67,20.67,0,0,0,1.959,20.646c3.471,4.89,10.91,8.043,18.619,8.043.649,0,1.3-.026,1.953-.072a30.012,30.012,0,0,1,1.083,7.991v12.627h-21.784a20.618,20.618,0,0,1-20.595-20.6V423.8c0-6.781,6.308-12.3,13.089-12.3.1,0,.206,0,.31,0a14.694,14.694,0,0,1,1.327-6.208c-.543-.025-1.088-.039-1.637-.039-10.224,0-19.332,8.317-19.332,18.54v9.815a26.867,26.867,0,0,0,26.838,26.837h24.876a3.154,3.154,0,0,0,3.151-3.149v-15.72A36.388,36.388,0,0,0,3647.45,406.916Zm1.485,15.929a15.857,15.857,0,0,1-2.943-9.837,30.23,30.23,0,0,1,17.858,15.86C3656.917,428.95,3651.186,426.017,3648.936,422.845Z" transform="translate(-3169.192 -10.26)" fill="#7bcf0c"/>
    </g>
    <text id="Service_Provider" data-name="Service Provider" transform="translate(900 374)" fill="#fff" font-size="24" font-family="Poppins-Light, Poppins" font-weight="300"><tspan x="0" y="0">Service Provider</tspan></text>
  </g>
</svg>
