<svg id="Group_2575" data-name="Group 2575" xmlns="http://www.w3.org/2000/svg" xmlns:xlink="http://www.w3.org/1999/xlink" width="20.054" height="20.051" viewBox="0 0 20.054 20.051">
  <defs>
    <clipPath id="clip-path">
      <rect id="Rectangle_109" data-name="Rectangle 109" width="20.054" height="20.051" fill="#515475"/>
    </clipPath>
  </defs>
  <g id="Group_2566" data-name="Group 2566" transform="translate(0 0)">
    <g id="Group_2565" data-name="Group 2565" clip-path="url(#clip-path)">
      <path id="Path_109597" data-name="Path 109597" d="M150.82,147.127a2.353,2.353,0,0,1,2.35-2.356h3.155a2.343,2.343,0,0,1,2.334,2.079,11.435,11.435,0,0,0,.427,2.058,2.348,2.348,0,0,1-.58,2.353l-1.279,1.279a14.746,14.746,0,0,0,5.828,5.829l1.279-1.279a2.347,2.347,0,0,1,2.353-.58,11.458,11.458,0,0,0,2.059.427,2.343,2.343,0,0,1,2.078,2.334v3.154a2.351,2.351,0,0,1-2.571,2.34,19.281,19.281,0,0,1-17.422-17.421c-.006-.072-.01-.144-.01-.216Zm6.807,2.476" transform="translate(-150.8 -144.751)" fill="#515475"/>
    </g>
  </g>
</svg>
