<svg xmlns="http://www.w3.org/2000/svg" width="30.22" height="34" viewBox="0 0 30.22 34">
  <g id="Group_2584" data-name="Group 2584" transform="translate(-1304.334 -1500)">
    <path id="iconmonstr-car-19" d="M30.925,16.371a.629.629,0,0,1,.629.629v.643c0,1-1.166,1.245-2.034,1.245L28.153,16.37h2.772Zm-1.815,4.414A9.064,9.064,0,0,1,30.3,25.4a12.509,12.509,0,0,1-1.267,5.014v2.326A1.257,1.257,0,0,1,27.778,34H25.889a1.259,1.259,0,0,1-1.259-1.259V31.481H8.259v1.259A1.259,1.259,0,0,1,7,34H5.111a1.259,1.259,0,0,1-1.259-1.259V30.414A12.509,12.509,0,0,1,2.585,25.4a9.064,9.064,0,0,1,1.191-4.617c1.044-1.935,2.332-4.348,3.689-6.613,1.043-1.741,1.59-2.149,2.869-2.379a32.681,32.681,0,0,1,6.11-.459,32.655,32.655,0,0,1,6.109.459c1.279.229,1.826.639,2.869,2.379C26.78,16.438,28.068,18.85,29.111,20.785ZM8.889,24.555A1.889,1.889,0,1,0,7,26.444,1.889,1.889,0,0,0,8.889,24.555Zm12.593,1.259a.629.629,0,0,0-.629-.629H12.037a.629.629,0,1,0,0,1.258h8.815A.628.628,0,0,0,21.482,25.815Zm3.7-6.96A25.407,25.407,0,0,0,23.131,14.9a1.682,1.682,0,0,0-1.1-.713,29.922,29.922,0,0,0-5.592-.451,30.042,30.042,0,0,0-5.592.451,1.686,1.686,0,0,0-1.1.713A25.407,25.407,0,0,0,7.7,18.854a52.612,52.612,0,0,0,8.741.626A52.458,52.458,0,0,0,25.185,18.854Zm2.593,5.7a1.888,1.888,0,1,0-1.888,1.888A1.889,1.889,0,0,0,27.778,24.555ZM4.735,16.371H1.963A.629.629,0,0,0,1.334,17v.643c0,1,1.166,1.245,2.034,1.245Zm19.8-13.538H16.444V1.972A1.991,1.991,0,0,0,14.274.007L8.362.664A1.984,1.984,0,0,0,6.529,2.629V7.284A1.983,1.983,0,0,0,8.361,9.248l5.909.66a1.993,1.993,0,0,0,2.175-1.966v-.86h3.151l1.145-1.4,1.155,1.4,1.234-1.4,1.149,1.4L26.361,5.25l-1.83-2.417ZM9.361,7.84,8.42,7.755a.5.5,0,0,1-.475-.487V2.612a.506.506,0,0,1,.475-.487l.941-.084Z" transform="translate(1303 1500)" fill="#515475"/>
  </g>
</svg>
