<svg xmlns="http://www.w3.org/2000/svg" width="21.929" height="14.802" viewBox="0 0 21.929 14.802">
  <path id="Path_109630" data-name="Path 109630" d="M149.8,391.858l.031-.024.024-.015.032-.021.026-.014.034-.018.026-.011.035-.015.027-.01.037-.012.027-.008.04-.009.026,0,.045-.006.023,0c.023,0,.046,0,.069,0h20.284c.024,0,.046,0,.069,0l.023,0,.045.006.026.006.04.009.027.008.037.012.027.01.036.015.026.012.034.017.025.014.032.021.024.015.031.024.016.013-10.08,10.08a.822.822,0,0,1-1.161,0l-10.08-10.08.016-.013Zm-.32,2.035,5.2,5.2-5.2,5.2Zm21.106,12.592H150.317a.819.819,0,0,1-.519-.188l6.044-6.043,2.86,2.86a2.465,2.465,0,0,0,3.487,0l2.874-2.874,6.052,6.053a.821.821,0,0,1-.528.192Zm.822-2.224-5.184-5.184,5.184-5.184Z" transform="translate(-149.481 -391.683)" fill="#515475"/>
</svg>
