<svg xmlns="http://www.w3.org/2000/svg" width="54" height="54" viewBox="0 0 54 54">
  <g id="published_with_changes_black_24dp" opacity="0.39">
    <rect id="Rectangle_3178" data-name="Rectangle 3178" width="54" height="54" fill="none"/>
    <path id="Path_118594" data-name="Path 118594" d="M39.35,41.313h5.4v4.5H31.25v-13.5h4.5v6.142a17.963,17.963,0,0,0-9-31.86V2.05a22.479,22.479,0,0,1,12.6,39.263ZM6.5,24.438A17.891,17.891,0,0,1,13.25,10.42v6.142h4.5V3.063H4.25v4.5h5.4a22.479,22.479,0,0,0,12.6,39.263V42.28A18.01,18.01,0,0,1,6.5,24.438Zm27.54-8.753L21.305,28.42l-6.368-6.367-3.172,3.172,9.54,9.54L37.212,18.858Z" transform="translate(2.5 2.563)" fill="#fff"/>
  </g>
</svg>
